<mxfile host="app.diagrams.net" modified="2023-04-17T07:13:24.253Z" agent="Mozilla/5.0 (X11; Ubuntu; Linux x86_64; rv:109.0) Gecko/20100101 Firefox/111.0" etag="VJjjv2LQWk_g3qgloFtm" version="21.1.1" type="github">
  <diagram name="Page-1" id="lL7mC4RVFXEto7MLpvFA">
    <mxGraphModel dx="1360" dy="915" grid="1" gridSize="10" guides="1" tooltips="1" connect="1" arrows="1" fold="1" page="1" pageScale="1" pageWidth="850" pageHeight="1100" math="0" shadow="0">
      <root>
        <mxCell id="0" />
        <mxCell id="1" parent="0" />
        <mxCell id="8dqxaz00r-WmeCq21K9j-6" style="edgeStyle=orthogonalEdgeStyle;rounded=0;orthogonalLoop=1;jettySize=auto;html=1;exitX=1;exitY=0.5;exitDx=0;exitDy=0;entryX=0.5;entryY=0;entryDx=0;entryDy=0;" edge="1" parent="1" source="8dqxaz00r-WmeCq21K9j-1" target="8dqxaz00r-WmeCq21K9j-3">
          <mxGeometry relative="1" as="geometry" />
        </mxCell>
        <mxCell id="8dqxaz00r-WmeCq21K9j-19" style="edgeStyle=orthogonalEdgeStyle;rounded=0;orthogonalLoop=1;jettySize=auto;html=1;exitX=1;exitY=0.5;exitDx=0;exitDy=0;entryX=1;entryY=0.5;entryDx=0;entryDy=0;" edge="1" parent="1" source="8dqxaz00r-WmeCq21K9j-1" target="8dqxaz00r-WmeCq21K9j-17">
          <mxGeometry relative="1" as="geometry">
            <Array as="points">
              <mxPoint x="760" y="321" />
              <mxPoint x="760" y="559" />
            </Array>
          </mxGeometry>
        </mxCell>
        <mxCell id="8dqxaz00r-WmeCq21K9j-1" value="Control model" style="rounded=1;whiteSpace=wrap;html=1;" vertex="1" parent="1">
          <mxGeometry x="480" y="291" width="120" height="60" as="geometry" />
        </mxCell>
        <mxCell id="8dqxaz00r-WmeCq21K9j-4" style="edgeStyle=orthogonalEdgeStyle;rounded=0;orthogonalLoop=1;jettySize=auto;html=1;exitX=1;exitY=0.5;exitDx=0;exitDy=0;entryX=0;entryY=0.5;entryDx=0;entryDy=0;" edge="1" parent="1" source="8dqxaz00r-WmeCq21K9j-2" target="8dqxaz00r-WmeCq21K9j-3">
          <mxGeometry relative="1" as="geometry" />
        </mxCell>
        <mxCell id="8dqxaz00r-WmeCq21K9j-2" value="Plant model" style="rounded=1;whiteSpace=wrap;html=1;" vertex="1" parent="1">
          <mxGeometry x="480" y="411" width="120" height="60" as="geometry" />
        </mxCell>
        <mxCell id="8dqxaz00r-WmeCq21K9j-18" style="edgeStyle=orthogonalEdgeStyle;rounded=0;orthogonalLoop=1;jettySize=auto;html=1;exitX=0.5;exitY=1;exitDx=0;exitDy=0;entryX=0.5;entryY=0;entryDx=0;entryDy=0;" edge="1" parent="1" source="8dqxaz00r-WmeCq21K9j-3" target="8dqxaz00r-WmeCq21K9j-17">
          <mxGeometry relative="1" as="geometry" />
        </mxCell>
        <mxCell id="8dqxaz00r-WmeCq21K9j-3" value="" style="ellipse;whiteSpace=wrap;html=1;aspect=fixed;" vertex="1" parent="1">
          <mxGeometry x="664" y="426" width="30" height="30" as="geometry" />
        </mxCell>
        <mxCell id="8dqxaz00r-WmeCq21K9j-7" value="&lt;font size=&quot;1&quot;&gt;&lt;b style=&quot;font-size: 15px;&quot;&gt;+&lt;/b&gt;&lt;/font&gt;" style="text;html=1;strokeColor=none;fillColor=none;align=center;verticalAlign=middle;whiteSpace=wrap;rounded=0;" vertex="1" parent="1">
          <mxGeometry x="620" y="408.5" width="70" height="35" as="geometry" />
        </mxCell>
        <mxCell id="8dqxaz00r-WmeCq21K9j-8" value="&lt;font size=&quot;1&quot;&gt;&lt;b style=&quot;font-size: 15px;&quot;&gt;-&lt;/b&gt;&lt;/font&gt;" style="text;html=1;strokeColor=none;fillColor=none;align=center;verticalAlign=middle;whiteSpace=wrap;rounded=0;" vertex="1" parent="1">
          <mxGeometry x="660" y="396" width="70" height="35" as="geometry" />
        </mxCell>
        <mxCell id="8dqxaz00r-WmeCq21K9j-10" style="edgeStyle=orthogonalEdgeStyle;rounded=0;orthogonalLoop=1;jettySize=auto;html=1;exitX=1;exitY=0.5;exitDx=0;exitDy=0;entryX=0;entryY=0.5;entryDx=0;entryDy=0;" edge="1" parent="1" source="8dqxaz00r-WmeCq21K9j-9" target="8dqxaz00r-WmeCq21K9j-2">
          <mxGeometry relative="1" as="geometry" />
        </mxCell>
        <mxCell id="8dqxaz00r-WmeCq21K9j-12" style="edgeStyle=orthogonalEdgeStyle;rounded=0;orthogonalLoop=1;jettySize=auto;html=1;exitX=1;exitY=0.5;exitDx=0;exitDy=0;entryX=0;entryY=0.5;entryDx=0;entryDy=0;" edge="1" parent="1" source="8dqxaz00r-WmeCq21K9j-9" target="8dqxaz00r-WmeCq21K9j-1">
          <mxGeometry relative="1" as="geometry" />
        </mxCell>
        <mxCell id="8dqxaz00r-WmeCq21K9j-9" value="&lt;div&gt;Model-based&lt;/div&gt;&lt;div&gt;optimzer&lt;br&gt;&lt;/div&gt;" style="rounded=1;whiteSpace=wrap;html=1;" vertex="1" parent="1">
          <mxGeometry x="210" y="393.5" width="190" height="95" as="geometry" />
        </mxCell>
        <mxCell id="8dqxaz00r-WmeCq21K9j-14" value="&lt;i&gt;&lt;font style=&quot;font-size: 14px;&quot;&gt;Y(k)&lt;/font&gt;&lt;/i&gt;" style="text;html=1;align=center;verticalAlign=middle;resizable=0;points=[];autosize=1;strokeColor=none;fillColor=none;" vertex="1" parent="1">
          <mxGeometry x="600" y="401" width="50" height="30" as="geometry" />
        </mxCell>
        <mxCell id="8dqxaz00r-WmeCq21K9j-15" value="&lt;i&gt;&lt;font style=&quot;font-size: 15px;&quot;&gt;Ŷ(k)&lt;/font&gt;&lt;/i&gt;" style="text;html=1;align=center;verticalAlign=middle;resizable=0;points=[];autosize=1;strokeColor=none;fillColor=none;" vertex="1" parent="1">
          <mxGeometry x="614" y="291" width="50" height="30" as="geometry" />
        </mxCell>
        <mxCell id="8dqxaz00r-WmeCq21K9j-22" style="edgeStyle=orthogonalEdgeStyle;rounded=0;orthogonalLoop=1;jettySize=auto;html=1;exitX=0;exitY=0.5;exitDx=0;exitDy=0;entryX=0.5;entryY=1;entryDx=0;entryDy=0;" edge="1" parent="1" source="8dqxaz00r-WmeCq21K9j-17" target="8dqxaz00r-WmeCq21K9j-9">
          <mxGeometry relative="1" as="geometry" />
        </mxCell>
        <mxCell id="8dqxaz00r-WmeCq21K9j-17" value="" style="ellipse;whiteSpace=wrap;html=1;aspect=fixed;" vertex="1" parent="1">
          <mxGeometry x="664" y="544" width="30" height="30" as="geometry" />
        </mxCell>
        <mxCell id="8dqxaz00r-WmeCq21K9j-20" value="" style="endArrow=classic;html=1;rounded=0;entryX=0;entryY=0.5;entryDx=0;entryDy=0;" edge="1" parent="1" target="8dqxaz00r-WmeCq21K9j-9">
          <mxGeometry width="50" height="50" relative="1" as="geometry">
            <mxPoint x="80" y="441" as="sourcePoint" />
            <mxPoint x="450" y="450" as="targetPoint" />
          </mxGeometry>
        </mxCell>
        <mxCell id="8dqxaz00r-WmeCq21K9j-21" value="Set points, Y&lt;sub&gt;ref&lt;/sub&gt;" style="text;html=1;align=center;verticalAlign=middle;resizable=0;points=[];autosize=1;strokeColor=none;fillColor=none;" vertex="1" parent="1">
          <mxGeometry x="90" y="411" width="100" height="30" as="geometry" />
        </mxCell>
        <mxCell id="8dqxaz00r-WmeCq21K9j-23" value="&lt;i&gt;&lt;font style=&quot;font-size: 14px;&quot;&gt;B(k)&lt;/font&gt;&lt;/i&gt;" style="text;html=1;align=center;verticalAlign=middle;resizable=0;points=[];autosize=1;strokeColor=none;fillColor=none;" vertex="1" parent="1">
          <mxGeometry x="630" y="480" width="50" height="30" as="geometry" />
        </mxCell>
        <mxCell id="8dqxaz00r-WmeCq21K9j-24" value="&lt;font style=&quot;font-size: 15px;&quot;&gt;&lt;i&gt;Ỹ(K)&lt;br&gt;&lt;/i&gt;&lt;/font&gt;" style="text;html=1;align=center;verticalAlign=middle;resizable=0;points=[];autosize=1;strokeColor=none;fillColor=none;" vertex="1" parent="1">
          <mxGeometry x="350" y="520" width="50" height="30" as="geometry" />
        </mxCell>
        <mxCell id="8dqxaz00r-WmeCq21K9j-25" value=" &lt;font style=&quot;font-size: 16px;&quot;&gt;&lt;i&gt;&lt;span dir=&quot;ltr&quot; role=&quot;presentation&quot; style=&quot;left: 289.91px; top: 624.039px; font-family: sans-serif;&quot;&gt;∆&lt;/span&gt;&lt;span dir=&quot;ltr&quot; role=&quot;presentation&quot; style=&quot;left: 302.155px; top: 624.039px; font-family: sans-serif;&quot;&gt;U&lt;/span&gt;&lt;span dir=&quot;ltr&quot; role=&quot;presentation&quot; style=&quot;left: 312.188px; top: 624.039px; font-family: sans-serif;&quot;&gt;(k) &lt;/span&gt;&lt;/i&gt;&lt;span dir=&quot;ltr&quot; role=&quot;presentation&quot; style=&quot;left: 313.789px; top: 624.039px; font-family: sans-serif;&quot;&gt;&lt;/span&gt;&lt;/font&gt;" style="text;html=1;strokeColor=none;fillColor=none;align=center;verticalAlign=middle;whiteSpace=wrap;rounded=0;" vertex="1" parent="1">
          <mxGeometry x="410" y="446" width="60" height="30" as="geometry" />
        </mxCell>
      </root>
    </mxGraphModel>
  </diagram>
</mxfile>
